<?xml version="1.0" encoding="UTF-8"?>
<svg height="16px" viewBox="0 0 24 24" width="16px" xmlns="http://www.w3.org/2000/svg">
    <path
       d="m 4.5 1.5 c -2.4668 0 -4.5 2.0332 -4.5 4.5 v 12 c 0 2.4668 2.0332 4.5 4.5 4.5 h 15 c 2.4668 0 4.5 -2.0332 4.5 -4.5 v -12 c 0 -2.4668 -2.0332 -4.5 -4.5 -4.5 z m 0 3 h 15 c 0.8555 0 1.5 0.6445 1.5 1.5 v 10.5 c 0 0.832 -0.668 1.5 -1.5 1.5 h -15 c -0.832 0 -1.5 -0.668 -1.5 -1.5 v -10.5 c 0 -0.8555 0.75 -1.5 1.5 -1.5 z m 0.75 10.5 c -0.416 0 -0.75 0.334 -0.75 0.75 s 0.334 0.75 0.75 0.75 h 13.5 c 0.416 0 0.75 -0.334 0.75 -0.75 s -0.334 -0.75 -0.75 -0.75 z m 0 0"
       fill="#000000" />
</svg>
